<?xml version="1.0" standalone="no"?>
<!DOCTYPE svg PUBLIC "-//W3C//DTD SVG 20010904//EN"
 "http://www.w3.org/TR/2001/REC-SVG-20010904/DTD/svg10.dtd">
<svg version="1.0" xmlns="http://www.w3.org/2000/svg"
 width="940.000000pt" height="940.000000pt" viewBox="0 0 940.000000 940.000000"
 preserveAspectRatio="xMidYMid meet">
<metadata>
Created by potrace 1.14, written by Peter Selinger 2001-2017
</metadata>
<g transform="translate(0.000000,940.000000) scale(0.100000,-0.100000)"
fill="#000000" stroke="none">
<path d="M5030 6873 c-40 -17 -60 -62 -60 -137 0 -30 -3 -68 -6 -85 l-6 -31
-77 0 c-98 0 -359 -26 -442 -44 -137 -30 -278 -72 -349 -103 -19 -8 -44 -19
-55 -23 -107 -43 -342 -176 -383 -216 -7 -8 -17 -14 -21 -14 -4 0 -16 -8 -27
-17 -10 -10 -37 -31 -59 -47 -81 -59 -311 -299 -375 -391 -52 -75 -132 -200
-137 -213 -4 -10 -9 -19 -13 -22 -6 -5 -74 -142 -109 -221 -40 -90 -80 -225
-122 -414 -8 -33 -14 -94 -14 -136 0 -70 2 -79 25 -98 49 -40 106 -22 197 65
27 26 144 74 208 85 82 14 211 7 278 -16 99 -33 194 -105 291 -219 33 -40 43
-46 76 -46 27 0 45 8 66 28 82 77 168 128 273 161 51 17 218 13 271 -5 57 -19
134 -57 138 -66 2 -5 10 -8 17 -8 7 0 44 -30 80 -67 l67 -67 -5 -91 c-6 -98
-31 -392 -47 -550 -17 -170 -30 -303 -45 -485 -15 -171 -26 -292 -46 -495 -5
-55 -12 -131 -15 -170 -3 -38 -7 -80 -10 -92 l-4 -22 -409 -3 c-225 -2 -413
-7 -418 -11 -9 -10 -11 -302 -2 -311 3 -3 30 -9 59 -13 51 -8 55 -10 63 -43
27 -115 44 -192 62 -280 8 -41 20 -95 25 -120 16 -71 29 -139 42 -215 14 -84
36 -127 69 -136 42 -12 893 -10 927 2 17 6 33 18 37 27 12 31 33 116 40 167 3
28 10 66 15 85 16 59 48 210 65 300 22 118 37 183 47 196 5 6 29 14 54 17 67
7 73 21 74 160 0 113 -8 152 -34 169 -6 4 -132 8 -280 8 l-269 0 7 58 c8 62
18 166 41 427 17 195 31 347 45 490 6 55 17 179 25 275 8 96 19 222 25 280 6
58 14 152 19 210 9 116 27 164 66 182 14 6 25 15 25 20 0 4 7 8 15 8 8 0 15 3
15 8 0 9 83 45 161 70 42 14 208 16 241 3 160 -62 220 -105 356 -254 19 -21
43 -37 54 -37 19 0 71 30 93 54 71 78 260 156 376 156 85 0 264 -53 277 -82 2
-5 10 -8 18 -8 8 0 57 -43 109 -95 98 -99 116 -108 168 -84 47 21 52 48 51
248 -1 173 -15 309 -44 436 -5 22 -14 62 -19 88 -6 27 -18 69 -27 95 -9 26
-27 76 -39 112 -22 63 -75 185 -97 224 -29 53 -62 113 -72 131 -6 11 -14 22
-17 25 -3 3 -19 25 -34 50 -16 24 -34 51 -42 58 -7 7 -18 22 -23 33 -23 42
-202 229 -290 301 -71 58 -193 148 -202 148 -4 0 -17 8 -27 17 -56 47 -274
155 -451 222 -47 18 -92 36 -100 41 -9 4 -31 11 -50 15 -19 4 -55 14 -80 22
-42 14 -106 31 -172 47 -26 6 -28 10 -27 59 0 28 4 73 8 98 12 71 -12 115 -66
124 -15 2 -35 1 -43 -2z"/>
</g>
</svg>
